# xmcd CD database file
#
# Track frame offsets:
#	150
#	21442
#	45602
#	68670
#	91297
#	113982
#	134302
#	152697
#	177497
#	202122
#	237132
#
# Disc length: 3695 seconds
#
# Revision: 3
# Processed by: cddbd v1.5.2PL0 Copyright (c) Steve Scherf et al.
# Submitted via: CDex 1.70beta3
#
DISCID=950e6d0b
DTITLE=鬩戊ｴ具ｽｽ蜈域ざ隴ｽ・ｮ - Bougainvillea
DYEAR=2003
DGENRE=JPop
TTITLE0=驍ゑｽｱ隴ｬ・ｹ
TTITLE1=light song
TTITLE2=郢晄じ繝ｻ郢ｧ・ｲ郢晢ｽｳ郢晁侭ﾎ懃ｹｧ・｢
TTITLE3=雎ｬ竏ｫ・ｷ
TTITLE4=blue heaven
TTITLE5=隴ｯ繝ｻ迚｡邵ｺ・ｮ鬮ｮ・ｲ邵ｺ・ｯ
TTITLE6=髣・ｽｱ隴ｫ遉ｼ・ｳ
TTITLE7=Daisy/Daisy
TTITLE8=郢晢ｽｦ郢晢ｽｳ郢ｧ・ｰ郢晁ｼ釆帷ｹｧ・ｦ (Schwarze Katze Version)
TTITLE9=陟厄ｽｼ隴・ｽｹ
TTITLE10=CD Extra Data - Music clip
EXTD=YEAR: 2003
EXTT0=
EXTT1=
EXTT2=
EXTT3=
EXTT4=
EXTT5=
EXTT6=
EXTT7=
EXTT8=
EXTT9=
EXTT10=
PLAYORDER=
